<svg id="Component_15_1" data-name="Component 15 – 1" xmlns="http://www.w3.org/2000/svg" width="28" height="28" viewBox="0 0 28 28">
  <circle id="Ellipse_3" data-name="Ellipse 3" cx="14" cy="14" r="14" fill="#3c58cb"/>
  <g id="Icon_ionic-ios-mail" data-name="Icon ionic-ios-mail" transform="translate(6.358 3.171)">
    <path id="Path_5" data-name="Path 5" d="M11.839,10.326,9.632,12.575a.04.04,0,0,0,0,.057l1.545,1.645a.266.266,0,0,1,0,.377.267.267,0,0,1-.377,0L9.261,13.016a.042.042,0,0,0-.059,0l-.375.382a1.652,1.652,0,0,1-1.178.5,1.685,1.685,0,0,1-1.2-.511l-.361-.367a.042.042,0,0,0-.059,0L4.487,14.655a.267.267,0,0,1-.377,0,.266.266,0,0,1,0-.377l1.545-1.645a.044.044,0,0,0,0-.057L3.445,10.326a.04.04,0,0,0-.07.029v4.5a.658.658,0,0,0,.656.656h7.221a.658.658,0,0,0,.656-.656v-4.5A.041.041,0,0,0,11.839,10.326Z" transform="translate(0 -1.727)" fill="#fff"/>
    <path id="Path_6" data-name="Path 6" d="M8.244,11.631a1.115,1.115,0,0,0,.8-.336l3.219-3.276a.645.645,0,0,0-.406-.144H4.632a.64.64,0,0,0-.406.144l3.219,3.276A1.115,1.115,0,0,0,8.244,11.631Z" transform="translate(-0.603)" fill="#fff"/>
  </g>
</svg>
