<svg id="Component_16_1" data-name="Component 16 – 1" xmlns="http://www.w3.org/2000/svg" width="28" height="28" viewBox="0 0 28 28">
  <circle id="Ellipse_4" data-name="Ellipse 4" cx="14" cy="14" r="14" fill="#3c58cb"/>
  <path id="Icon_metro-earth" data-name="Icon metro-earth" d="M6.877,1.928a4.307,4.307,0,1,0,4.307,4.307A4.307,4.307,0,0,0,6.877,1.928Zm0,8.075A3.756,3.756,0,0,1,5.387,9.7L7.348,7.49a.269.269,0,0,0,.068-.179V6.5a.269.269,0,0,0-.269-.269,3.512,3.512,0,0,1-1.963-1,.269.269,0,0,0-.19-.079H3.916a.269.269,0,0,0-.269.269V7.042a.269.269,0,0,0,.149.241l.928.464v1.58A3.77,3.77,0,0,1,3.472,4.62h.983a.269.269,0,0,0,.19-.079L5.722,3.464a.269.269,0,0,0,.079-.19V2.623a3.779,3.779,0,0,1,2.728.224c-.035.029-.069.06-.1.093A1.615,1.615,0,0,0,9.568,5.7l.08,0a6.321,6.321,0,0,1-.071,3.132.268.268,0,0,0-.007.044A3.756,3.756,0,0,1,6.877,10Z" transform="translate(7.123 7.765)" fill="#fff"/>
</svg>
