<svg id="Component_14_1" data-name="Component 14 – 1" xmlns="http://www.w3.org/2000/svg" width="28" height="28" viewBox="0 0 28 28">
  <circle id="Ellipse_3" data-name="Ellipse 3" cx="14" cy="14" r="14" fill="#3c58cb"/>
  <path id="Icon_awesome-phone-alt" data-name="Icon awesome-phone-alt" d="M8.638,6.283,6.693,5.45a.417.417,0,0,0-.486.12L5.345,6.622A6.437,6.437,0,0,1,2.268,3.545L3.32,2.684A.416.416,0,0,0,3.44,2.2L2.607.252A.42.42,0,0,0,2.129.011L.323.428A.417.417,0,0,0,0,.834,8.057,8.057,0,0,0,8.058,8.892a.417.417,0,0,0,.406-.323l.417-1.806A.422.422,0,0,0,8.638,6.283Z" transform="translate(9.554 9.554)" fill="#fff"/>
</svg>
