 <svg
      xmlns="http://www.w3.org/2000/svg"
      width="55"
      height="45"
      viewBox="0 0 49.566 40.435"
      >
      <path
      id="Icon_awesome-hands-helping"
      data-name="Icon awesome-hands-helping"
      d="M37.795,15.164H26.023v4.423a5.577,5.577,0,1,1-11.152,0v-9.6l-5.026,3.08a5.065,5.065,0,0,0-2.409,4.328v3.736l-6.2,3.649a2.549,2.549,0,0,0-.906,3.451l6.2,10.947a2.453,2.453,0,0,0,3.384.924l8.008-4.715H28.5a5.011,5.011,0,0,0,4.957-5.055H34.7A2.5,2.5,0,0,0,37.175,27.8V22.746h.62a1.873,1.873,0,0,0,1.859-1.9V17.06A1.873,1.873,0,0,0,37.795,15.164ZM49.234,12.21l-6.2-10.947A2.453,2.453,0,0,0,39.653.339L31.645,5.055H23.73a4.922,4.922,0,0,0-2.625.766L18.51,7.471a2.522,2.522,0,0,0-1.162,2.14v9.975a3.1,3.1,0,1,0,6.2,0v-6.95h14.25a4.383,4.383,0,0,1,4.337,4.423V19.31l6.2-3.649a2.558,2.558,0,0,0,.906-3.451Z"
      transform="translate(0.002 -0.001)"
      fill="#393939"
      />
</svg>